<?xml version="1.0" encoding="iso-8859-1"?>
<!-- Uploaded to: SVG Repo, www.svgrepo.com, Generator: SVG Repo Mixer Tools -->
<svg fill="#000000" height="800px" width="800px" version="1.1" id="Capa_1" xmlns="http://www.w3.org/2000/svg" xmlns:xlink="http://www.w3.org/1999/xlink" 
	 viewBox="0 0 480.7 480.7" xml:space="preserve">
<g>
	<g id="XMLID_1793_">
		<path id="XMLID_1959_" d="M240.4,202.3c-39.7,0-72.1,32.3-72.1,72.1c0,9.5,7.7,17.2,17.2,17.2s17.2-7.7,17.2-17.2
			c0-20.7,16.9-37.6,37.6-37.6c9.5,0,17.2-7.7,17.2-17.2C257.6,210,249.9,202.3,240.4,202.3z"/>
		<path id="XMLID_1957_" d="M343.3,118.6l-5.2-22.4c-6.6-28.4-32-48.5-61.2-48.5h-73.2c-29.2,0-54.5,20.1-61.1,48.5l-5.2,22.4
			C51.7,133.4,0,160.6,0,160.6v167.8C0,386.2,46.8,433,104.6,433h271.5c57.8,0,104.6-46.8,104.6-104.6V160.6
			C480.7,160.6,429,133.4,343.3,118.6z M71.8,219c-10.3,0-18.7-8.4-18.7-18.7s8.4-18.7,18.7-18.7s18.7,8.4,18.7,18.7
			C90.5,210.6,82.1,219,71.8,219z M240.4,389.8c-63.8,0-115.4-51.7-115.4-115.4c0-63.8,51.7-115.4,115.4-115.4
			c63.8,0,115.4,51.7,115.4,115.4S304.1,389.8,240.4,389.8z"/>
	</g>
</g>
</svg>